<?xml version="1.0" encoding="UTF-8" standalone="no"?>
<svg
   xmlns:dc="http://purl.org/dc/elements/1.1/"
   xmlns:cc="http://creativecommons.org/ns#"
   xmlns:rdf="http://www.w3.org/1999/02/22-rdf-syntax-ns#"
   xmlns:svg="http://www.w3.org/2000/svg"
   xmlns="http://www.w3.org/2000/svg"
   xmlns:sodipodi="http://sodipodi.sourceforge.net/DTD/sodipodi-0.dtd"
   xmlns:inkscape="http://www.inkscape.org/namespaces/inkscape"
   sodipodi:docname="1bis.svg"
   id="svg198"
   preserveAspectRatio="xMidYMid meet"
   viewBox="0 0 1030 1540"
   height="154px"
   width="103px"
   version="1.0"
   inkscape:version="1.0.1 (3bc2e813f5, 2020-09-07)">
  <metadata
     id="metadata204">
    <rdf:RDF>
      <cc:Work
         rdf:about="">
        <dc:format>image/svg+xml</dc:format>
        <dc:type
           rdf:resource="http://purl.org/dc/dcmitype/StillImage" />
      </cc:Work>
    </rdf:RDF>
  </metadata>
  <defs
     id="defs202" />
  <sodipodi:namedview
     pagecolor="#ffffff"
     bordercolor="#666666"
     borderopacity="1"
     objecttolerance="10"
     gridtolerance="10"
     guidetolerance="10"
     inkscape:pageopacity="0"
     inkscape:pageshadow="2"
     inkscape:window-width="1600"
     inkscape:window-height="1013"
     id="namedview200"
     showgrid="false"
     inkscape:zoom="2.7467072"
     inkscape:cx="57.638807"
     inkscape:cy="17.656253"
     inkscape:window-x="-8"
     inkscape:window-y="0"
     inkscape:window-maximized="0"
     inkscape:current-layer="svg198" />
  <g
     id="layer101"
     fill="#251f15"
     stroke="none"
     style="display:inline"
     inkscape:label="Black">
    <path
       d="m 503,1339 -18,-61 -61,-22 C 314,1216 234,1149 211,1079 189,1011 171,770 188,770 c 4,1 16,15 27,33 36,57 58,49 110,-40 60,-103 91,-203 77,-249 -12,-39 -10,-40 23,-18 29,19 55,82 55,135 0,44 23,109 39,109 6,0 18,-11 26,-24 15,-22 15,-31 1,-99 C 526,523 523,515 483,459 443,402 420,350 420,313 420,269 492.13773,149.27545 524.13773,138.27545 559.18563,128.09581 590,151 590,188 c 0,39.24553 -3.503,22.26946 -14,7 -29,-40 -56,5 -56,95 0,36 61,146 169,305 69,101 92,157 98,240 l 6,75 34,-30 c 18,-17 41,-30 50,-30 39,0 -12,249 -64,311 -32.83834,32.6527 -61,47 -110,70 -82,37 -143,88 -143,119 -1,16 -23,50 -33,50 -4,0 -14,-28 -24,-61 z"
       id="path108"
       style="display:inline"
       sodipodi:nodetypes="cccccccccsscccscscsccccscccsc" />
  </g>
  <g
     id="layer102"
     fill="#552c26"
     stroke="none"
     style="display:inline"
     inkscape:label="Dark Brown">
    <path
       d="m 527,1377 c -11,-28 -8,-87 3,-87 17,0 23,27 13,67 -7,30 -10,34 -16,20 z"
       id="path111"
       style="display:inline" />
    <path
       d="m 544,1185 c 22,-60 22,-65 5,-49 -10,9 -19,23 -19,31 0,17 -38,17 -72,-1 -16,-8 -28,-11 -28,-6 0,29 -111.7717,-45 -135,-81 -36.30279,-46.9912 -67.07163,-121.29636 -86,-178 -25.006,-75.018 5.48089,-62.10744 33.48089,-37.10744 C 259.20764,872.3218 275.02357,854.50517 299,829 388,660 402,627 408,567 c 15.01199,-50.82636 -14.48506,-76.1078 -3.48506,-76.1078 16,0 76.83239,77.50304 64.48506,153.1078 10,80 38,120 66,96 33,-27 36,-48 21,-124 -20,-97 -22,-101 -74,-174 -65,-92 -69.27545,-130.82036 -14.27545,-222.82036 34,-56 48.82036,-73.95809 67.82036,-73.95809 16.39699,0 27.9303,4.21412 32.2156,9.51932 9.09183,11.25569 15.39712,29.91486 13.74964,30.2921 C 576.465,186.18822 561.50858,157.42237 539,179 c -16,13 -22,31 -26,81 l -4,65 65,105 c 35,58 86,138 111,179 49,76 85,152 85,177 4.22742,26.21214 4.67108,27.47322 8.20765,54.72314 4.29751,38.21797 1.05682,103.59806 13.41529,93.43595 15.65392,-12.8719 28.01033,-26.73347 45.80268,-45.16942 27.93079,-20.92045 44.22109,-48.30708 42.60435,-1.84 C 862.00717,953.41473 825.80737,1157.0873 688,1204 c -98.82595,21.7238 -191.8925,118.488 -144,-19 z m -153,-84 c -6,-10 -7,-21 -4,-25 3,-3 1,-6 -5,-6 -7,0 -12,3 -12,6 0,9 20,44 26,44 2,0 0,-8 -5,-19 z m 67,-197 c 24,-12 57,-21 73,-20 16,1 29,-1 29,-6 0,-16 -64,-8 -108,13 -45,22 -82,69 -82,104 0,12 9,2 23,-25 16,-33 34,-51 65,-66 z"
       id="path113"
       style="display:inline"
       sodipodi:nodetypes="ccscscccccscccccssscccccccsccccccsssccsscscc" />
    <path
       d="m 428,1240 c -89,-28 -187,-117 -208,-190 -12,-41 -27.81301,-111.04803 -4.81301,-65.04803 26,51.00003 69.01511,134.04993 142.68853,171.87863 C 371.03692,1163.5885 410,1184 426,1189 c 16,5 42,12 57,16 22,4 28,11 25,27 -4,28 -13,29 -80,8 z"
       id="path115"
       style="display:inline"
       sodipodi:nodetypes="cccssccc" />
  </g>
  <g
     id="layer103"
     fill="#384e40"
     stroke="none"
     style="display:inline"
     inkscape:label="Dark Green">
    <path
       d="m 526,1261 c -5,-7 14,-73 38,-132 4,-9 25,-26 46,-38 46.34799,-47.3988 137.16361,-53.8924 164.65392,-102.53615 13.73252,-28.77963 60.3856,-30.25717 72.38485,-39.50377 14.66643,-10.8396 9.95225,-14.7556 25.76448,-38.60624 8.01056,23.83835 -21.89095,136.52346 -51.70744,206.09526 -30.92816,55.6587 -72.36527,78.8264 -144.92816,107.1198 -50.22484,26.4791 -52.49406,31.2694 -81.23949,49.2694 C 581.92816,1288.8383 534,1275 526,1261 Z"
       id="path120"
       style="display:inline"
       sodipodi:nodetypes="cccccccccc" />
    <path
       d="m 429.96539,1244.1834 c -67,-20 -146.63997,-73.7335 -187.63997,-129.7335 -28.83883,-39.3257 -48.7457,-179.72707 -39.2128,-162.41331 20.72088,37.63347 33.49353,89.90681 97.93232,161.44791 42.96373,32.4798 80.8868,56.5854 125.59865,71.3321 16,5 41.35641,16.1834 56.35641,20.1834 22,4 28,11 25,27 -4,28 -12.03461,33.1834 -78.03461,12.1834 z"
       id="path122"
       style="display:inline"
       sodipodi:nodetypes="ccsccccc" />
    <path
       d="m 235,979 c -15,-30 -20.26321,-42.45655 -26.15938,-58.30779 -7.3956,-19.88229 -13.60159,-35.34513 -18.72088,-65.37485 -0.97595,-18.48838 -5.92748,-77.96376 13.73689,-55.9439 11.25189,12.52941 25.02071,39.54989 42.69778,52.78273 9.2245,6.90536 18.79804,8.3297 14.44559,11.84381 -4.16381,10.17292 9.50697,34.48687 0,54 -15,29 -24,40 -7,81 3.04856,17.0279 13.50516,40.6782 -19,-20 z"
       id="path126"
       style="display:inline"
       sodipodi:nodetypes="csccscccc" />
    <path
       d="m 780,957 c 0,-1 21,-20 46,-41 31,-26 43,-32 35,-18 -14,26 -81,75 -81,59 z"
       id="path128"
       style="display:inline" />
  </g>
  <g
     id="layer104"
     fill="#089455"
     stroke="none"
     style="display:inline"
     inkscape:label="Green">
    <path
       d="m 531.95209,1256.9102 c -3,-8 4,-42 17,-75 16,-46 27.15569,-66 51.15569,-81 19,-11 27.55536,-15.2446 47.98273,-23.2324 43.51826,-15.4091 40.67372,-6.0588 81.33046,-18.5586 32.07984,-16.6473 17.43618,-18.7605 57.37376,-55.7548 24.30155,-22.51059 51.12267,-28.78291 60.24404,-54.40432 l -19.87104,64.86912 c -14.8263,38.7779 -20.98733,62.2995 -84.61027,95.0227 -62,19 -166.17975,101.8786 -179.17975,116.8786 -14,17 -24.42562,49.1797 -31.42562,31.1797 z"
       id="path133"
       style="display:inline"
       sodipodi:nodetypes="cccccsccccc" />
    <path
       d="m 430.6508,1205.9775 c -44.56405,-22.0104 -75.56093,-32.1469 -133.72002,-78.8597 -23.73626,-24.2913 -38.74941,-44.9286 -53.45878,-72.1962 -10.56118,-19.5779 -23.01252,-43.4693 -31.24679,-65.70984 26.53549,46.39394 50.26469,97.15614 88.33664,130.30944 30.98318,26.9804 57.91963,39.4605 84.48308,52.5723 29.93079,10.4359 116.31148,40.1937 122.31148,44.1937 1,1 0.64359,8.7128 -3.35641,17.7128 -7,19 -11.3492,-11.0225 -73.3492,-28.0225 z"
       id="path135"
       style="display:inline"
       sodipodi:nodetypes="ccscscccc" />
    <path
       d="m 239.93078,974.47418 c -9,-23 -15.92155,-41.26543 -27.82696,-68.65754 -10.09194,-23.21967 -19.61931,-79.74381 -18.75774,-92.67459 -3.71281,-17.6782 18.96423,43.19788 27.11415,54.20041 10.92045,25.04493 26,40.27324 26,30.27324 -32.18192,-33.62405 -41.22221,-82.01484 -33.37514,-68.97009 5.63637,9.36972 12.31241,31.27616 26.67628,45.00831 C 247.76137,886.65392 269,893 260,921 c -8,22 -10,54 -6,78 10.33137,42.8975 -13.33751,-22.57407 -14.06922,-24.52582 z"
       id="path137"
       style="display:inline"
       sodipodi:nodetypes="cscccscccc" />
  </g>
  <g
     id="layer105"
     fill="#2d689f"
     stroke="none"
     style="display:inline"
     inkscape:label="Dark Blue">
    <path
       d="m 465.17364,1167 c -49,-15 -83.17963,-62.4491 -88.17963,-126.4491 -4,-45 3.09581,-65.55689 27.09581,-93.55689 50,-59 107.08982,-73.26946 176.08982,-50.26946 44,15 82.59303,68.51515 94.82635,99.73054 10.29708,33.11241 4.88415,55.76301 -10.64072,57.64071 C 602.36527,1081.0958 553,1115 535,1151 c -17,32 -22.82636,32 -69.82636,16 z"
       id="path142"
       style="display:inline"
       sodipodi:nodetypes="cccccccc" />
  </g>
  <g
     id="layer106"
     fill="#43aed8"
     stroke="none"
     style="display:inline"
     inkscape:label="Blue">
    <path
       d="m 471,1167 c -40,-13 -81,-70 -88,-125 -10,-75 65,-152 149,-152 37,0 102,35 93,50 -3,6 1,10 9,10 18,0 9.24118,23.87059 11.99412,38.42941 11.88823,9.78824 17.22941,18.05299 13.57059,29.45299 -0.65883,17.9294 -8.75295,19.6647 -13.56471,27.1176 -5.71765,8 -23,21.1882 -45,35 -25,12 -49,36 -63,60 -13,22 -25,39 -28,39 -3,-1 -20,-6 -39,-12 z m 71,-169 c -7,-7 -12,-29 -12,-50 0,-32 -3,-38 -21,-38 -46,0 -86,43 -74,79 5,16 13,18 44,15 30,-4 40,-1 45,12 5,13 9,15 18,6 9,-9 9,-15 0,-24 z"
       id="path149"
       sodipodi:nodetypes="ccscscccccccsssccsss"
       style="display:inline" />
  </g>
  <g
     id="layer107"
     fill="#9c584d"
     stroke="none"
     style="display:inline"
     inkscape:label="Light Brown">
    <path
       d="m 357,1129 c -20,-11 -49,-37 -63,-59 -28,-41 -31.57438,-78.72314 -9.57438,-187.72314 C 294.42562,837.27686 341,748 365,720 c 19,-21 55,-134 55,-170 0,-16 -6.80794,-38.57166 -1.92217,-37.50899 C 450.50899,519.54491 460,578 461,629 c 0,56 18,110 41,125 13,8 22,6 38,-9 40,-36 42,-51 24,-133 -17,-76 -29,-103 -91,-197 -41,-61 -43,-106 -7,-178 31,-61 53.48069,-80.10351 71.91018,-84.72455 16.33478,-4.09581 26.83612,9.1389 22.98597,9.0536 C 554.15337,161.17966 537.24636,167.90533 529,180 c -17,23 -22,43 -22,88 1,63 12,92 72,182 20,30 48,78 63,106 15,28 43,77 63,110 48,79 65,142 65,235 0,77 4.09581,83.91617 -32.90419,113.9162 C 681.48523,1029.8774 683.32817,1059.4512 689,1011 674.72455,954.54491 641,911 583,884 553.57488,871.19762 518.4431,870.28744 482.63473,879.09581 420.63473,902.09581 382,935 370,978 c -16,59 -12,95 15,135 29,42 25,44 -28,16 z"
       id="path154"
       style="display:inline"
       sodipodi:nodetypes="ccccssccccccssccsscsccccccc" />
  </g>
  <g
     id="layer108"
     fill="#b1a834"
     stroke="none"
     style="display:none"
     inkscape:label="Light Green">
    <path
       d="m 237,988 c -9,-24 -27.5569,-87.29943 -30.5569,-114.29943 -6,-48 -31.94015,-135.01208 22.5569,-9.70057 30.4798,62.3144 -1.63249,75.83162 24,166 -1,0 -8,-19 -16,-42 z"
       id="path165"
       style="display:inline"
       sodipodi:nodetypes="ccccc" />
  </g>
  <g
     id="layer109"
     fill="#e86e6f"
     stroke="none"
     style="display:inline"
     inkscape:label="Red">
    <path
       d="m 352,1120 c -71,-38 -86,-88 -64,-211 10,-57 51,-149 82,-184 22,-25 64,-151 56,-170 -3,-8 1.86431,-19.52093 4,-15 4.40718,9.32935 7.32861,9.36342 10,19 3.48456,12.56994 4.03461,17.52944 10,26 7.93078,12.33213 7.74742,38.97572 7.74742,65.97572 C 457.74742,760.97572 515,798 559,726 583,688 584,669 569,603 553,536 527,479 486,425 435,359 431,324 467,248 c 31,-66 52.35927,-90.71855 72.35927,-90.71855 7,0 7.3418,-1.19223 -1.6582,3.80777 -19,12 -45.96398,50.76202 -52.96398,109.76202 C 481.73709,302.85124 499,328 524,373 c 37,67 105,180 158,264 61,96 78,150 78,251 0,79 -2,91 -22,109 -36,32 -37.08383,27.0838 -39.08383,0.0838 -2,-35.99997 -30.08981,-68.81434 -88.08981,-107.81434 C 568.82636,859.26946 549,855.81437 512,864 c -23,3 -53,13 -67,22 -32.19829,16.7098 -39.13301,22.86809 -63,50 -27,54 -30,139 -6,172 21,31 16,33 -24,12 z"
       id="path168"
       style="display:inline"
       sodipodi:nodetypes="ccccsscsccccsccccscccccccc" />
  </g>
  <g
     id="layer111"
     fill="#ea9e96"
     stroke="none"
     style="display:inline"
     inkscape:label="Orange">
    <path
       style="fill:#ef9d6c;fill-opacity:1;stroke-width:0.0905882"
       d="m 58.20469,87.407416 c -3.547463,-1.366151 -6.147575,-0.821619 -7.451998,-0.74381 -1.642527,0.111099 -3.38256,0.645211 -4.714631,1.090968 -0.330133,0.106724 -0.149069,-0.533469 0.220005,-1.195673 0.183164,-0.328637 0.848741,-1.392437 1.479061,-2.363996 1.940659,-2.991283 -0.07398,-3.091341 2.271618,-4.955941 2.154121,-2.433127 3.021478,-1.493161 4.817747,-4.465235 1.330922,-2.044222 2.537112,-4.836898 3.028751,-7.012424 0.3623,-1.603196 0.09033,-4.303578 -0.790014,-7.844047 -0.431565,-1.73562 -0.499214,-2.18611 -0.365733,-2.435521 0.131643,-0.245978 0.454919,-0.24638 0.766925,-9.61e-4 0.825431,0.649284 1.982706,4.547784 2.771727,9.337085 0.431654,2.620117 0.638604,4.745 0.72191,7.412335 0.07898,2.528645 0.159002,3.098014 0.461993,3.286934 0.22064,0.137572 0.738875,-0.155648 1.388049,-0.785363 0.700486,-0.679491 0.922467,-1.212574 1.070866,-2.57167 C 64.113254,72.032724 63.204443,65.248701 61.944369,61.84088 60.975526,59.220683 57.845818,51.132771 55.980544,48.094122 54.837328,46.313677 44.64254,35.560139 46.904772,29.050907 c 0.05611,-0.100516 0.474341,3.913411 2.470781,7.423647 2.516032,4.802421 3.075657,2.298983 4.696436,4.154795 2.534677,2.890531 5.643313,9.00293 8.248135,13.34231 3.513239,5.400684 5.021316,11.521502 6.962688,15.366776 1.377125,2.645129 2.408359,6.437772 3.093058,11.375564 0.50734,3.658751 0.800982,4.941695 1.383175,6.043215 0.256875,0.486009 0.445382,0.687356 1.139868,1.217504 0.570027,0.435138 0.889842,1.619401 1.011127,3.744161 0.108683,1.903969 1.283121,8.162831 -5.991631,10.256451 C 69.632532,95.496694 64.481811,90.5835 58.20469,87.407416 Z"
       id="path274"
       transform="scale(10)"
       sodipodi:nodetypes="cccssccssssssssssccccccsssscc" />
    <path
       style="fill:#ef9d6c;fill-opacity:1;stroke-width:0.0905882"
       d="m 37.671685,113.15106 c -2.369357,-0.97466 -4.582668,-3.02913 -5.619431,-5.21614 -0.723498,-1.52619 -0.84778,-1.75634 -1.086356,-2.01173 -0.336688,-0.36043 -0.658304,-0.34177 -1.037396,0.0602 -0.278024,0.29479 -0.307754,0.30615 -0.391495,0.14968 -0.456163,-0.85234 -0.478651,-8.047603 -0.04577,-14.645762 0.345048,-5.259402 1.655855,-8.048648 3.711829,-12.188201 1.743042,-3.509486 3.154958,-5.193817 4.518351,-6.682715 0.893736,-0.976007 1.580905,-2.256796 2.449607,-4.069262 1.243595,-2.594645 2.369789,-5.40361 3.120382,-9.366528 0.224905,-1.786405 -0.307758,-5.13511 0.489973,-1.5166 0.279815,1.309461 0.06552,4.345772 -0.0692,5.427338 -0.396981,3.187032 0.392202,5.798452 -1.023536,10.906421 -1.322968,0.581326 -2.350972,2.541667 -2.831923,3.519409 -0.139866,-0.501075 -2.677502,4.772694 -2.083666,5.508577 -1.953073,7.533655 2.209072,2.48233 4.376161,0.01549 5.078733,-5.781224 -2.988383,8.294245 -5.073517,14.020504 -0.628198,1.799591 -1.255499,4.890009 -1.084435,8.890149 0.754958,3.63123 1.700014,4.95338 2.146243,5.69199 1.101715,1.69602 0.865913,2.05505 -0.465821,1.50723 z M 31.695406,87.686358 c 1.084932,-5.194176 3.676294,-4.902065 4.931509,-8.071123 0.607061,-1.532654 0.829554,-2.932987 0.485552,-3.055973 -0.324405,-0.11598 -1.083278,0.670838 -1.991695,1.954934 -0.466396,0.659274 -0.972211,1.449629 -1.478885,2.316183 -0.510799,0.873609 -1.022472,1.824663 -1.495509,2.79693 -1.090551,2.241489 -1.257096,5.589413 -1.169256,6.194423 0.216427,1.49068 0.477911,-0.984574 0.718284,-2.135374 z"
       id="path276"
       transform="scale(10)"
       sodipodi:nodetypes="cssssssssccscccscccccssssssss" />
  </g>
  <g
     id="layer113"
     fill="#c7ddc9"
     stroke="none"
     style="display:inline"
     inkscape:label="Light Blue">
    <path
       d="m 460,1157 c -55,-28 -90,-130 -60,-177 8,-13 16.99402,-10.26965 10,3 -4.98235,9.45294 -8.09232,22.95 -5.85294,38.2883 2.5796,17.6686 14.82713,35.6842 27.21176,43.5705 15.36104,9.7816 23.22353,-3.9765 38.56471,-7.8588 11.15294,-1.6588 10.71765,-1.1118 20.07647,6 12,18 45,23 55,7 3,-5 12,-7 20,-3 11,3 15,-2 15,-18 0,-22 0,-22 18,-3 18,19 18,19 -10,37 -16,9 -38,33 -49,52 -22,37 -39,42 -79,22 z"
       id="path186"
       sodipodi:nodetypes="ccsssccccssccc" />
    <path
       d="m 620,1029 c 0,-11 5,-17 10,-14 6,3 10,13 10,21 0,8 -4,14 -10,14 -5,0 -10,-9 -10,-21 z"
       id="path188"
       style="display:inline" />
    <path
       d="m 555,984 c -11,-11 -14,-25 -10,-45 6,-24 3,-31 -17,-38 l -23,-10 h 23 c 25,-1 81,54 82,80 0,9 -7,20 -16,23 -21,8 -20,8 -39,-10 z"
       id="path190"
       style="display:inline" />
  </g>
  <g
     id="layer114"
     fill="#eed574"
     stroke="none"
     style="display:inline"
     inkscape:label="Yellow">
    <path
       d="m 321,1059 c -22,-55 -27,-99 -11,-99 6,0 10,-10 10,-23 0,-13 14,-50 30,-82 35,-68 73.20961,-162.08991 73.20961,-138.08991 0,9 7.44993,20.41472 2.83235,23.18563 -15.46708,9.28145 -45.31142,74.16175 -48.31142,90.16175 C 371.73054,851.25747 371,870 384,870 c 21,0 49.58087,-32.06593 -4,54.98202 C 349.4431,966.07184 351,1052 363,1088 c 6,16 5,22 -6,22 -8,0 -24,-23 -36,-51 z"
       id="path193"
       sodipodi:nodetypes="csscsscsccsc" />
    <path
       d="M 694,1021 C 718,982 630.1138,865.62874 535.26946,858.90419 502.54491,861.18563 499.54491,863.28145 518,849 c 16.5509,-10.46108 22,-17 22,-27 0,-10 5,-23 11,-29 6,-6 15.74683,-22.16878 23.15611,-43.66245 C 583.81856,720.22784 582,660 591,665 c 9,6 16.07173,87.74683 4.07173,136.74683 L 577.91561,833 608,810 c 18,-13 32,-30 32,-37 0,-20 13,-15 33,13 13,17 18,39 16,69 -2,25 2,50 9,57 9,9 12,9 12,0 0,-7 5,-12 10,-12 6,0 10,11 10,24 0,13 7,29 15,36 14,11 14,15 -2,32 -21,23 -59,46 -49,29 z"
       id="path195"
       sodipodi:nodetypes="cccsscccccsccssssccc" />
  </g>
</svg>
